# xmcd CD database file
#
# Track frame offsets:
#	150
#	18238
#	42836
#	60945
#	77453
#	93821
#	105832
#	121814
#	139340
#	155156
#	174734
#	200180
#	221588
#	239416
#	257998
#	272035
#	289603
#	309340
#	334826
#
# Disc length: 4715 seconds
#
# Revision: 1
# Processed by: cddbd v1.5.2PL0 Copyright (c) Steve Scherf et al.
# Submitted via: CDex 1.70beta2
#
DISCID=09126913
DTITLE=Redhouse Hot Six - High Society
DYEAR=2012
DGENRE=Jazz
TTITLE0=High Society
TTITLE1=Dinah
TTITLE2=East St. Louis Toodle-Oo
TTITLE3=Promenade Aux Champs Elysees
TTITLE4=Roamin'
TTITLE5=Ol' Man Moses
TTITLE6=In A Mist
TTITLE7=Martinique
TTITLE8=Solitude
TTITLE9=Don't Get Around Much Anymore
TTITLE10=Caravan
TTITLE11=C'est Si Bon
TTITLE12=Danny Boy
TTITLE13=Mardi Gras In New Orleans
TTITLE14=Cornbread, Peas And Black Molasses
TTITLE15=In dieser Stadt
TTITLE16=Do You Know What It Means To Miss New Orleans
TTITLE17=Bei Mir Bist Du Scheen
TTITLE18=That's A Plenty
EXTD=YEAR: 2012
EXTT0=
EXTT1=
EXTT2=
EXTT3=
EXTT4=
EXTT5=
EXTT6=
EXTT7=
EXTT8=
EXTT9=
EXTT10=
EXTT11=
EXTT12=
EXTT13=
EXTT14=
EXTT15=
EXTT16=
EXTT17=
EXTT18=
PLAYORDER=
